<?xml version="1.0" encoding="UTF-8"?>
<svg xmlns="http://www.w3.org/2000/svg" xmlns:xlink="http://www.w3.org/1999/xlink" viewBox="0 0 1000 1000">
  <defs>
    <style>
      .cls-1 {
        filter: url(#drop-shadow-9);
      }

      .cls-1, .cls-2, .cls-3, .cls-4, .cls-5, .cls-6, .cls-7, .cls-8, .cls-9 {
        stroke: #333;
        stroke-width: 4px;
      }

      .cls-1, .cls-2, .cls-3, .cls-4, .cls-5, .cls-6, .cls-7, .cls-8, .cls-9, .cls-10 {
        fill: #fff;
        stroke-miterlimit: 10;
      }

      .cls-2 {
        filter: url(#drop-shadow-3);
      }

      .cls-3 {
        filter: url(#drop-shadow-1);
      }

      .cls-4 {
        filter: url(#drop-shadow-2);
      }

      .cls-5 {
        filter: url(#drop-shadow-4);
      }

      .cls-6 {
        filter: url(#drop-shadow-5);
      }

      .cls-7 {
        filter: url(#drop-shadow-7);
      }

      .cls-8 {
        filter: url(#drop-shadow-8);
      }

      .cls-9 {
        filter: url(#drop-shadow-6);
      }

      .cls-11 {
        font-family: IBMPlexMono-Regular, 'IBM Plex Mono';
        font-size: 172px;
      }

      .cls-12 {
        fill: #eee;
      }

      .cls-10 {
        opacity: .4;
        stroke: #000;
        stroke-width: .25px;
      }
    </style>
    <filter id="drop-shadow-1" filterUnits="userSpaceOnUse">
      <feOffset dx="7" dy="7"/>
      <feGaussianBlur result="blur" stdDeviation="13"/>
      <feFlood flood-color="#a09c9c" flood-opacity=".5"/>
      <feComposite in2="blur" operator="in"/>
      <feComposite in="SourceGraphic"/>
    </filter>
    <filter id="drop-shadow-2" filterUnits="userSpaceOnUse">
      <feOffset dx="7" dy="7"/>
      <feGaussianBlur result="blur-2" stdDeviation="13"/>
      <feFlood flood-color="#a09c9c" flood-opacity=".5"/>
      <feComposite in2="blur-2" operator="in"/>
      <feComposite in="SourceGraphic"/>
    </filter>
    <filter id="drop-shadow-3" filterUnits="userSpaceOnUse">
      <feOffset dx="7" dy="7"/>
      <feGaussianBlur result="blur-3" stdDeviation="13"/>
      <feFlood flood-color="#a09c9c" flood-opacity=".5"/>
      <feComposite in2="blur-3" operator="in"/>
      <feComposite in="SourceGraphic"/>
    </filter>
    <filter id="drop-shadow-4" filterUnits="userSpaceOnUse">
      <feOffset dx="7" dy="7"/>
      <feGaussianBlur result="blur-4" stdDeviation="13"/>
      <feFlood flood-color="#a09c9c" flood-opacity=".5"/>
      <feComposite in2="blur-4" operator="in"/>
      <feComposite in="SourceGraphic"/>
    </filter>
    <filter id="drop-shadow-5" filterUnits="userSpaceOnUse">
      <feOffset dx="7" dy="7"/>
      <feGaussianBlur result="blur-5" stdDeviation="13"/>
      <feFlood flood-color="#a09c9c" flood-opacity=".5"/>
      <feComposite in2="blur-5" operator="in"/>
      <feComposite in="SourceGraphic"/>
    </filter>
    <filter id="drop-shadow-6" filterUnits="userSpaceOnUse">
      <feOffset dx="7" dy="7"/>
      <feGaussianBlur result="blur-6" stdDeviation="13"/>
      <feFlood flood-color="#a09c9c" flood-opacity=".5"/>
      <feComposite in2="blur-6" operator="in"/>
      <feComposite in="SourceGraphic"/>
    </filter>
    <filter id="drop-shadow-7" filterUnits="userSpaceOnUse">
      <feOffset dx="7" dy="7"/>
      <feGaussianBlur result="blur-7" stdDeviation="13"/>
      <feFlood flood-color="#a09c9c" flood-opacity=".5"/>
      <feComposite in2="blur-7" operator="in"/>
      <feComposite in="SourceGraphic"/>
    </filter>
    <filter id="drop-shadow-8" filterUnits="userSpaceOnUse">
      <feOffset dx="7" dy="7"/>
      <feGaussianBlur result="blur-8" stdDeviation="13"/>
      <feFlood flood-color="#a09c9c" flood-opacity=".5"/>
      <feComposite in2="blur-8" operator="in"/>
      <feComposite in="SourceGraphic"/>
    </filter>
    <filter id="drop-shadow-9" filterUnits="userSpaceOnUse">
      <feOffset dx="7" dy="7"/>
      <feGaussianBlur result="blur-9" stdDeviation="13"/>
      <feFlood flood-color="#a09c9c" flood-opacity=".5"/>
      <feComposite in2="blur-9" operator="in"/>
      <feComposite in="SourceGraphic"/>
    </filter>
  </defs>
  <g id="Grid">
    <rect class="cls-10" width="50" height="50"/>
    <rect class="cls-10" x="50" width="50" height="50"/>
    <rect class="cls-10" x="100" width="50" height="50"/>
    <rect class="cls-10" x="150" width="50" height="50"/>
    <rect class="cls-10" x="200" width="50" height="50"/>
    <rect class="cls-10" x="250" width="50" height="50"/>
    <rect class="cls-10" x="300" width="50" height="50"/>
    <rect class="cls-10" x="350" width="50" height="50"/>
    <rect class="cls-10" x="400" width="50" height="50"/>
    <rect class="cls-10" x="450" width="50" height="50"/>
    <rect class="cls-10" x="500" width="50" height="50"/>
    <rect class="cls-10" x="550" width="50" height="50"/>
    <rect class="cls-10" x="600" width="50" height="50"/>
    <rect class="cls-10" x="650" width="50" height="50"/>
    <rect class="cls-10" x="700" width="50" height="50"/>
    <rect class="cls-10" x="750" width="50" height="50"/>
    <rect class="cls-10" x="800" width="50" height="50"/>
    <rect class="cls-10" x="850" width="50" height="50"/>
    <rect class="cls-10" x="900" width="50" height="50"/>
    <rect class="cls-10" x="950" width="50" height="50"/>
    <rect class="cls-10" y="50" width="50" height="50"/>
    <rect class="cls-10" x="50" y="50" width="50" height="50"/>
    <rect class="cls-10" x="100" y="50" width="50" height="50"/>
    <rect class="cls-10" x="150" y="50" width="50" height="50"/>
    <rect class="cls-10" x="200" y="50" width="50" height="50"/>
    <rect class="cls-10" x="250" y="50" width="50" height="50"/>
    <rect class="cls-10" x="300" y="50" width="50" height="50"/>
    <rect class="cls-10" x="350" y="50" width="50" height="50"/>
    <rect class="cls-10" x="400" y="50" width="50" height="50"/>
    <rect class="cls-10" x="450" y="50" width="50" height="50"/>
    <rect class="cls-10" x="500" y="50" width="50" height="50"/>
    <rect class="cls-10" x="550" y="50" width="50" height="50"/>
    <rect class="cls-10" x="600" y="50" width="50" height="50"/>
    <rect class="cls-10" x="650" y="50" width="50" height="50"/>
    <rect class="cls-10" x="700" y="50" width="50" height="50"/>
    <rect class="cls-10" x="750" y="50" width="50" height="50"/>
    <rect class="cls-10" x="800" y="50" width="50" height="50"/>
    <rect class="cls-10" x="850" y="50" width="50" height="50"/>
    <rect class="cls-10" x="900" y="50" width="50" height="50"/>
    <rect class="cls-10" x="950" y="50" width="50" height="50"/>
    <rect class="cls-10" y="100" width="50" height="50"/>
    <rect class="cls-10" x="50" y="100" width="50" height="50"/>
    <rect class="cls-10" x="100" y="100" width="50" height="50"/>
    <rect class="cls-10" x="150" y="100" width="50" height="50"/>
    <rect class="cls-10" x="200" y="100" width="50" height="50"/>
    <rect class="cls-10" x="250" y="100" width="50" height="50"/>
    <rect class="cls-10" x="300" y="100" width="50" height="50"/>
    <rect class="cls-10" x="350" y="100" width="50" height="50"/>
    <rect class="cls-10" x="400" y="100" width="50" height="50"/>
    <rect class="cls-10" x="450" y="100" width="50" height="50"/>
    <rect class="cls-10" x="500" y="100" width="50" height="50"/>
    <rect class="cls-10" x="550" y="100" width="50" height="50"/>
    <rect class="cls-10" x="600" y="100" width="50" height="50"/>
    <rect class="cls-10" x="650" y="100" width="50" height="50"/>
    <rect class="cls-10" x="700" y="100" width="50" height="50"/>
    <rect class="cls-10" x="750" y="100" width="50" height="50"/>
    <rect class="cls-10" x="800" y="100" width="50" height="50"/>
    <rect class="cls-10" x="850" y="100" width="50" height="50"/>
    <rect class="cls-10" x="900" y="100" width="50" height="50"/>
    <rect class="cls-10" x="950" y="100" width="50" height="50"/>
    <rect class="cls-10" y="150" width="50" height="50"/>
    <rect class="cls-10" x="50" y="150" width="50" height="50"/>
    <rect class="cls-10" x="100" y="150" width="50" height="50"/>
    <rect class="cls-10" x="150" y="150" width="50" height="50"/>
    <rect class="cls-10" x="200" y="150" width="50" height="50"/>
    <rect class="cls-10" x="250" y="150" width="50" height="50"/>
    <rect class="cls-10" x="300" y="150" width="50" height="50"/>
    <rect class="cls-10" x="350" y="150" width="50" height="50"/>
    <rect class="cls-10" x="400" y="150" width="50" height="50"/>
    <rect class="cls-10" x="450" y="150" width="50" height="50"/>
    <rect class="cls-10" x="500" y="150" width="50" height="50"/>
    <rect class="cls-10" x="550" y="150" width="50" height="50"/>
    <rect class="cls-10" x="600" y="150" width="50" height="50"/>
    <rect class="cls-10" x="650" y="150" width="50" height="50"/>
    <rect class="cls-10" x="700" y="150" width="50" height="50"/>
    <rect class="cls-10" x="750" y="150" width="50" height="50"/>
    <rect class="cls-10" x="800" y="150" width="50" height="50"/>
    <rect class="cls-10" x="850" y="150" width="50" height="50"/>
    <rect class="cls-10" x="900" y="150" width="50" height="50"/>
    <rect class="cls-10" x="950" y="150" width="50" height="50"/>
    <rect class="cls-10" y="200" width="50" height="50"/>
    <rect class="cls-10" x="50" y="200" width="50" height="50"/>
    <rect class="cls-10" x="100" y="200" width="50" height="50"/>
    <rect class="cls-10" x="150" y="200" width="50" height="50"/>
    <rect class="cls-10" x="200" y="200" width="50" height="50"/>
    <rect class="cls-10" x="250" y="200" width="50" height="50"/>
    <rect class="cls-10" x="300" y="200" width="50" height="50"/>
    <rect class="cls-10" x="350" y="200" width="50" height="50"/>
    <rect class="cls-10" x="400" y="200" width="50" height="50"/>
    <rect class="cls-10" x="450" y="200" width="50" height="50"/>
    <rect class="cls-10" x="500" y="200" width="50" height="50"/>
    <rect class="cls-10" x="550" y="200" width="50" height="50"/>
    <rect class="cls-10" x="600" y="200" width="50" height="50"/>
    <rect class="cls-10" x="650" y="200" width="50" height="50"/>
    <rect class="cls-10" x="700" y="200" width="50" height="50"/>
    <rect class="cls-10" x="750" y="200" width="50" height="50"/>
    <rect class="cls-10" x="800" y="200" width="50" height="50"/>
    <rect class="cls-10" x="850" y="200" width="50" height="50"/>
    <rect class="cls-10" x="900" y="200" width="50" height="50"/>
    <rect class="cls-10" x="950" y="200" width="50" height="50"/>
    <rect class="cls-10" y="250" width="50" height="50"/>
    <rect class="cls-10" x="50" y="250" width="50" height="50"/>
    <rect class="cls-10" x="100" y="250" width="50" height="50"/>
    <rect class="cls-10" x="150" y="250" width="50" height="50"/>
    <rect class="cls-10" x="200" y="250" width="50" height="50"/>
    <rect class="cls-10" x="250" y="250" width="50" height="50"/>
    <rect class="cls-10" x="300" y="250" width="50" height="50"/>
    <rect class="cls-10" x="350" y="250" width="50" height="50"/>
    <rect class="cls-10" x="400" y="250" width="50" height="50"/>
    <rect class="cls-10" x="450" y="250" width="50" height="50"/>
    <rect class="cls-10" x="500" y="250" width="50" height="50"/>
    <rect class="cls-10" x="550" y="250" width="50" height="50"/>
    <rect class="cls-10" x="600" y="250" width="50" height="50"/>
    <rect class="cls-10" x="650" y="250" width="50" height="50"/>
    <rect class="cls-10" x="700" y="250" width="50" height="50"/>
    <rect class="cls-10" x="750" y="250" width="50" height="50"/>
    <rect class="cls-10" x="800" y="250" width="50" height="50"/>
    <rect class="cls-10" x="850" y="250" width="50" height="50"/>
    <rect class="cls-10" x="900" y="250" width="50" height="50"/>
    <rect class="cls-10" x="950" y="250" width="50" height="50"/>
    <rect class="cls-10" y="300" width="50" height="50"/>
    <rect class="cls-10" x="50" y="300" width="50" height="50"/>
    <rect class="cls-10" x="100" y="300" width="50" height="50"/>
    <rect class="cls-10" x="150" y="300" width="50" height="50"/>
    <rect class="cls-10" x="200" y="300" width="50" height="50"/>
    <rect class="cls-10" x="250" y="300" width="50" height="50"/>
    <rect class="cls-10" x="300" y="300" width="50" height="50"/>
    <rect class="cls-10" x="350" y="300" width="50" height="50"/>
    <rect class="cls-10" x="400" y="300" width="50" height="50"/>
    <rect class="cls-10" x="450" y="300" width="50" height="50"/>
    <rect class="cls-10" x="500" y="300" width="50" height="50"/>
    <rect class="cls-10" x="550" y="300" width="50" height="50"/>
    <rect class="cls-10" x="600" y="300" width="50" height="50"/>
    <rect class="cls-10" x="650" y="300" width="50" height="50"/>
    <rect class="cls-10" x="700" y="300" width="50" height="50"/>
    <rect class="cls-10" x="750" y="300" width="50" height="50"/>
    <rect class="cls-10" x="800" y="300" width="50" height="50"/>
    <rect class="cls-10" x="850" y="300" width="50" height="50"/>
    <rect class="cls-10" x="900" y="300" width="50" height="50"/>
    <rect class="cls-10" x="950" y="300" width="50" height="50"/>
    <rect class="cls-10" y="350" width="50" height="50"/>
    <rect class="cls-10" x="50" y="350" width="50" height="50"/>
    <rect class="cls-10" x="100" y="350" width="50" height="50"/>
    <rect class="cls-10" x="150" y="350" width="50" height="50"/>
    <rect class="cls-10" x="200" y="350" width="50" height="50"/>
    <rect class="cls-10" x="250" y="350" width="50" height="50"/>
    <rect class="cls-10" x="300" y="350" width="50" height="50"/>
    <rect class="cls-10" x="350" y="350" width="50" height="50"/>
    <rect class="cls-10" x="400" y="350" width="50" height="50"/>
    <rect class="cls-10" x="450" y="350" width="50" height="50"/>
    <rect class="cls-10" x="500" y="350" width="50" height="50"/>
    <rect class="cls-10" x="550" y="350" width="50" height="50"/>
    <rect class="cls-10" x="600" y="350" width="50" height="50"/>
    <rect class="cls-10" x="650" y="350" width="50" height="50"/>
    <rect class="cls-10" x="700" y="350" width="50" height="50"/>
    <rect class="cls-10" x="750" y="350" width="50" height="50"/>
    <rect class="cls-10" x="800" y="350" width="50" height="50"/>
    <rect class="cls-10" x="850" y="350" width="50" height="50"/>
    <rect class="cls-10" x="900" y="350" width="50" height="50"/>
    <rect class="cls-10" x="950" y="350" width="50" height="50"/>
    <rect class="cls-10" y="400" width="50" height="50"/>
    <rect class="cls-10" x="50" y="400" width="50" height="50"/>
    <rect class="cls-10" x="100" y="400" width="50" height="50"/>
    <rect class="cls-10" x="150" y="400" width="50" height="50"/>
    <rect class="cls-10" x="200" y="400" width="50" height="50"/>
    <rect class="cls-10" x="250" y="400" width="50" height="50"/>
    <rect class="cls-10" x="300" y="400" width="50" height="50"/>
    <rect class="cls-10" x="350" y="400" width="50" height="50"/>
    <rect class="cls-10" x="400" y="400" width="50" height="50"/>
    <rect class="cls-10" x="450" y="400" width="50" height="50"/>
    <rect class="cls-10" x="500" y="400" width="50" height="50"/>
    <rect class="cls-10" x="550" y="400" width="50" height="50"/>
    <rect class="cls-10" x="600" y="400" width="50" height="50"/>
    <rect class="cls-10" x="650" y="400" width="50" height="50"/>
    <rect class="cls-10" x="700" y="400" width="50" height="50"/>
    <rect class="cls-10" x="750" y="400" width="50" height="50"/>
    <rect class="cls-10" x="800" y="400" width="50" height="50"/>
    <rect class="cls-10" x="850" y="400" width="50" height="50"/>
    <rect class="cls-10" x="900" y="400" width="50" height="50"/>
    <rect class="cls-10" x="950" y="400" width="50" height="50"/>
    <rect class="cls-10" y="450" width="50" height="50"/>
    <rect class="cls-10" x="50" y="450" width="50" height="50"/>
    <rect class="cls-10" x="100" y="450" width="50" height="50"/>
    <rect class="cls-10" x="150" y="450" width="50" height="50"/>
    <rect class="cls-10" x="200" y="450" width="50" height="50"/>
    <rect class="cls-10" x="250" y="450" width="50" height="50"/>
    <rect class="cls-10" x="300" y="450" width="50" height="50"/>
    <rect class="cls-10" x="350" y="450" width="50" height="50"/>
    <rect class="cls-10" x="400" y="450" width="50" height="50"/>
    <rect class="cls-10" x="450" y="450" width="50" height="50"/>
    <rect class="cls-10" x="500" y="450" width="50" height="50"/>
    <rect class="cls-10" x="550" y="450" width="50" height="50"/>
    <rect class="cls-10" x="600" y="450" width="50" height="50"/>
    <rect class="cls-10" x="650" y="450" width="50" height="50"/>
    <rect class="cls-10" x="700" y="450" width="50" height="50"/>
    <rect class="cls-10" x="750" y="450" width="50" height="50"/>
    <rect class="cls-10" x="800" y="450" width="50" height="50"/>
    <rect class="cls-10" x="850" y="450" width="50" height="50"/>
    <rect class="cls-10" x="900" y="450" width="50" height="50"/>
    <rect class="cls-10" x="950" y="450" width="50" height="50"/>
    <rect class="cls-10" y="500" width="50" height="50"/>
    <rect class="cls-10" x="50" y="500" width="50" height="50"/>
    <rect class="cls-10" x="100" y="500" width="50" height="50"/>
    <rect class="cls-10" x="150" y="500" width="50" height="50"/>
    <rect class="cls-10" x="200" y="500" width="50" height="50"/>
    <rect class="cls-10" x="250" y="500" width="50" height="50"/>
    <rect class="cls-10" x="300" y="500" width="50" height="50"/>
    <rect class="cls-10" x="350" y="500" width="50" height="50"/>
    <rect class="cls-10" x="400" y="500" width="50" height="50"/>
    <rect class="cls-10" x="450" y="500" width="50" height="50"/>
    <rect class="cls-10" x="500" y="500" width="50" height="50"/>
    <rect class="cls-10" x="550" y="500" width="50" height="50"/>
    <rect class="cls-10" x="600" y="500" width="50" height="50"/>
    <rect class="cls-10" x="650" y="500" width="50" height="50"/>
    <rect class="cls-10" x="700" y="500" width="50" height="50"/>
    <rect class="cls-10" x="750" y="500" width="50" height="50"/>
    <rect class="cls-10" x="800" y="500" width="50" height="50"/>
    <rect class="cls-10" x="850" y="500" width="50" height="50"/>
    <rect class="cls-10" x="900" y="500" width="50" height="50"/>
    <rect class="cls-10" x="950" y="500" width="50" height="50"/>
    <rect class="cls-10" y="550" width="50" height="50"/>
    <rect class="cls-10" x="50" y="550" width="50" height="50"/>
    <rect class="cls-10" x="100" y="550" width="50" height="50"/>
    <rect class="cls-10" x="150" y="550" width="50" height="50"/>
    <rect class="cls-10" x="200" y="550" width="50" height="50"/>
    <rect class="cls-10" x="250" y="550" width="50" height="50"/>
    <rect class="cls-10" x="300" y="550" width="50" height="50"/>
    <rect class="cls-10" x="350" y="550" width="50" height="50"/>
    <rect class="cls-10" x="400" y="550" width="50" height="50"/>
    <rect class="cls-10" x="450" y="550" width="50" height="50"/>
    <rect class="cls-10" x="500" y="550" width="50" height="50"/>
    <rect class="cls-10" x="550" y="550" width="50" height="50"/>
    <rect class="cls-10" x="600" y="550" width="50" height="50"/>
    <rect class="cls-10" x="650" y="550" width="50" height="50"/>
    <rect class="cls-10" x="700" y="550" width="50" height="50"/>
    <rect class="cls-10" x="750" y="550" width="50" height="50"/>
    <rect class="cls-10" x="800" y="550" width="50" height="50"/>
    <rect class="cls-10" x="850" y="550" width="50" height="50"/>
    <rect class="cls-10" x="900" y="550" width="50" height="50"/>
    <rect class="cls-10" x="950" y="550" width="50" height="50"/>
    <rect class="cls-10" y="600" width="50" height="50"/>
    <rect class="cls-10" x="50" y="600" width="50" height="50"/>
    <rect class="cls-10" x="100" y="600" width="50" height="50"/>
    <rect class="cls-10" x="150" y="600" width="50" height="50"/>
    <rect class="cls-10" x="200" y="600" width="50" height="50"/>
    <rect class="cls-10" x="250" y="600" width="50" height="50"/>
    <rect class="cls-10" x="300" y="600" width="50" height="50"/>
    <rect class="cls-10" x="350" y="600" width="50" height="50"/>
    <rect class="cls-10" x="400" y="600" width="50" height="50"/>
    <rect class="cls-10" x="450" y="600" width="50" height="50"/>
    <rect class="cls-10" x="500" y="600" width="50" height="50"/>
    <rect class="cls-10" x="550" y="600" width="50" height="50"/>
    <rect class="cls-10" x="600" y="600" width="50" height="50"/>
    <rect class="cls-10" x="650" y="600" width="50" height="50"/>
    <rect class="cls-10" x="700" y="600" width="50" height="50"/>
    <rect class="cls-10" x="750" y="600" width="50" height="50"/>
    <rect class="cls-10" x="800" y="600" width="50" height="50"/>
    <rect class="cls-10" x="850" y="600" width="50" height="50"/>
    <rect class="cls-10" x="900" y="600" width="50" height="50"/>
    <rect class="cls-10" x="950" y="600" width="50" height="50"/>
    <rect class="cls-10" y="650" width="50" height="50"/>
    <rect class="cls-10" x="50" y="650" width="50" height="50"/>
    <rect class="cls-10" x="100" y="650" width="50" height="50"/>
    <rect class="cls-10" x="150" y="650" width="50" height="50"/>
    <rect class="cls-10" x="200" y="650" width="50" height="50"/>
    <rect class="cls-10" x="250" y="650" width="50" height="50"/>
    <rect class="cls-10" x="300" y="650" width="50" height="50"/>
    <rect class="cls-10" x="350" y="650" width="50" height="50"/>
    <rect class="cls-10" x="400" y="650" width="50" height="50"/>
    <rect class="cls-10" x="450" y="650" width="50" height="50"/>
    <rect class="cls-10" x="500" y="650" width="50" height="50"/>
    <rect class="cls-10" x="550" y="650" width="50" height="50"/>
    <rect class="cls-10" x="600" y="650" width="50" height="50"/>
    <rect class="cls-10" x="650" y="650" width="50" height="50"/>
    <rect class="cls-10" x="700" y="650" width="50" height="50"/>
    <rect class="cls-10" x="750" y="650" width="50" height="50"/>
    <rect class="cls-10" x="800" y="650" width="50" height="50"/>
    <rect class="cls-10" x="850" y="650" width="50" height="50"/>
    <rect class="cls-10" x="900" y="650" width="50" height="50"/>
    <rect class="cls-10" x="950" y="650" width="50" height="50"/>
    <rect class="cls-10" y="700" width="50" height="50"/>
    <rect class="cls-10" x="50" y="700" width="50" height="50"/>
    <rect class="cls-10" x="100" y="700" width="50" height="50"/>
    <rect class="cls-10" x="150" y="700" width="50" height="50"/>
    <rect class="cls-10" x="200" y="700" width="50" height="50"/>
    <rect class="cls-10" x="250" y="700" width="50" height="50"/>
    <rect class="cls-10" x="300" y="700" width="50" height="50"/>
    <rect class="cls-10" x="350" y="700" width="50" height="50"/>
    <rect class="cls-10" x="400" y="700" width="50" height="50"/>
    <rect class="cls-10" x="450" y="700" width="50" height="50"/>
    <rect class="cls-10" x="500" y="700" width="50" height="50"/>
    <rect class="cls-10" x="550" y="700" width="50" height="50"/>
    <rect class="cls-10" x="600" y="700" width="50" height="50"/>
    <rect class="cls-10" x="650" y="700" width="50" height="50"/>
    <rect class="cls-10" x="700" y="700" width="50" height="50"/>
    <rect class="cls-10" x="750" y="700" width="50" height="50"/>
    <rect class="cls-10" x="800" y="700" width="50" height="50"/>
    <rect class="cls-10" x="850" y="700" width="50" height="50"/>
    <rect class="cls-10" x="900" y="700" width="50" height="50"/>
    <rect class="cls-10" x="950" y="700" width="50" height="50"/>
    <rect class="cls-10" y="750" width="50" height="50"/>
    <rect class="cls-10" x="50" y="750" width="50" height="50"/>
    <rect class="cls-10" x="100" y="750" width="50" height="50"/>
    <rect class="cls-10" x="150" y="750" width="50" height="50"/>
    <rect class="cls-10" x="200" y="750" width="50" height="50"/>
    <rect class="cls-10" x="250" y="750" width="50" height="50"/>
    <rect class="cls-10" x="300" y="750" width="50" height="50"/>
    <rect class="cls-10" x="350" y="750" width="50" height="50"/>
    <rect class="cls-10" x="400" y="750" width="50" height="50"/>
    <rect class="cls-10" x="450" y="750" width="50" height="50"/>
    <rect class="cls-10" x="500" y="750" width="50" height="50"/>
    <rect class="cls-10" x="550" y="750" width="50" height="50"/>
    <rect class="cls-10" x="600" y="750" width="50" height="50"/>
    <rect class="cls-10" x="650" y="750" width="50" height="50"/>
    <rect class="cls-10" x="700" y="750" width="50" height="50"/>
    <rect class="cls-10" x="750" y="750" width="50" height="50"/>
    <rect class="cls-10" x="800" y="750" width="50" height="50"/>
    <rect class="cls-10" x="850" y="750" width="50" height="50"/>
    <rect class="cls-10" x="900" y="750" width="50" height="50"/>
    <rect class="cls-10" x="950" y="750" width="50" height="50"/>
    <rect class="cls-10" y="800" width="50" height="50"/>
    <rect class="cls-10" x="50" y="800" width="50" height="50"/>
    <rect class="cls-10" x="100" y="800" width="50" height="50"/>
    <rect class="cls-10" x="150" y="800" width="50" height="50"/>
    <rect class="cls-10" x="200" y="800" width="50" height="50"/>
    <rect class="cls-10" x="250" y="800" width="50" height="50"/>
    <rect class="cls-10" x="300" y="800" width="50" height="50"/>
    <rect class="cls-10" x="350" y="800" width="50" height="50"/>
    <rect class="cls-10" x="400" y="800" width="50" height="50"/>
    <rect class="cls-10" x="450" y="800" width="50" height="50"/>
    <rect class="cls-10" x="500" y="800" width="50" height="50"/>
    <rect class="cls-10" x="550" y="800" width="50" height="50"/>
    <rect class="cls-10" x="600" y="800" width="50" height="50"/>
    <rect class="cls-10" x="650" y="800" width="50" height="50"/>
    <rect class="cls-10" x="700" y="800" width="50" height="50"/>
    <rect class="cls-10" x="750" y="800" width="50" height="50"/>
    <rect class="cls-10" x="800" y="800" width="50" height="50"/>
    <rect class="cls-10" x="850" y="800" width="50" height="50"/>
    <rect class="cls-10" x="900" y="800" width="50" height="50"/>
    <rect class="cls-10" x="950" y="800" width="50" height="50"/>
    <rect class="cls-10" y="850" width="50" height="50"/>
    <rect class="cls-10" x="50" y="850" width="50" height="50"/>
    <rect class="cls-10" x="100" y="850" width="50" height="50"/>
    <rect class="cls-10" x="150" y="850" width="50" height="50"/>
    <rect class="cls-10" x="200" y="850" width="50" height="50"/>
    <rect class="cls-10" x="250" y="850" width="50" height="50"/>
    <rect class="cls-10" x="300" y="850" width="50" height="50"/>
    <rect class="cls-10" x="350" y="850" width="50" height="50"/>
    <rect class="cls-10" x="400" y="850" width="50" height="50"/>
    <rect class="cls-10" x="450" y="850" width="50" height="50"/>
    <rect class="cls-10" x="500" y="850" width="50" height="50"/>
    <rect class="cls-10" x="550" y="850" width="50" height="50"/>
    <rect class="cls-10" x="600" y="850" width="50" height="50"/>
    <rect class="cls-10" x="650" y="850" width="50" height="50"/>
    <rect class="cls-10" x="700" y="850" width="50" height="50"/>
    <rect class="cls-10" x="750" y="850" width="50" height="50"/>
    <rect class="cls-10" x="800" y="850" width="50" height="50"/>
    <rect class="cls-10" x="850" y="850" width="50" height="50"/>
    <rect class="cls-10" x="900" y="850" width="50" height="50"/>
    <rect class="cls-10" x="950" y="850" width="50" height="50"/>
    <rect class="cls-10" y="900" width="50" height="50"/>
    <rect class="cls-10" x="50" y="900" width="50" height="50"/>
    <rect class="cls-10" x="100" y="900" width="50" height="50"/>
    <rect class="cls-10" x="150" y="900" width="50" height="50"/>
    <rect class="cls-10" x="200" y="900" width="50" height="50"/>
    <rect class="cls-10" x="250" y="900" width="50" height="50"/>
    <rect class="cls-10" x="300" y="900" width="50" height="50"/>
    <rect class="cls-10" x="350" y="900" width="50" height="50"/>
    <rect class="cls-10" x="400" y="900" width="50" height="50"/>
    <rect class="cls-10" x="450" y="900" width="50" height="50"/>
    <rect class="cls-10" x="500" y="900" width="50" height="50"/>
    <rect class="cls-10" x="550" y="900" width="50" height="50"/>
    <rect class="cls-10" x="600" y="900" width="50" height="50"/>
    <rect class="cls-10" x="650" y="900" width="50" height="50"/>
    <rect class="cls-10" x="700" y="900" width="50" height="50"/>
    <rect class="cls-10" x="750" y="900" width="50" height="50"/>
    <rect class="cls-10" x="800" y="900" width="50" height="50"/>
    <rect class="cls-10" x="850" y="900" width="50" height="50"/>
    <rect class="cls-10" x="900" y="900" width="50" height="50"/>
    <rect class="cls-10" x="950" y="900" width="50" height="50"/>
    <rect class="cls-10" y="950" width="50" height="50"/>
    <rect class="cls-10" x="50" y="950" width="50" height="50"/>
    <rect class="cls-10" x="100" y="950" width="50" height="50"/>
    <rect class="cls-10" x="150" y="950" width="50" height="50"/>
    <rect class="cls-10" x="200" y="950" width="50" height="50"/>
    <rect class="cls-10" x="250" y="950" width="50" height="50"/>
    <rect class="cls-10" x="300" y="950" width="50" height="50"/>
    <rect class="cls-10" x="350" y="950" width="50" height="50"/>
    <rect class="cls-10" x="400" y="950" width="50" height="50"/>
    <rect class="cls-10" x="450" y="950" width="50" height="50"/>
    <rect class="cls-10" x="500" y="950" width="50" height="50"/>
    <rect class="cls-10" x="550" y="950" width="50" height="50"/>
    <rect class="cls-10" x="600" y="950" width="50" height="50"/>
    <rect class="cls-10" x="650" y="950" width="50" height="50"/>
    <rect class="cls-10" x="700" y="950" width="50" height="50"/>
    <rect class="cls-10" x="750" y="950" width="50" height="50"/>
    <rect class="cls-10" x="800" y="950" width="50" height="50"/>
    <rect class="cls-10" x="850" y="950" width="50" height="50"/>
    <rect class="cls-10" x="900" y="950" width="50" height="50"/>
    <rect class="cls-10" x="950" y="950" width="50" height="50"/>
  </g>
  <g id="Text">
    <rect id="Background" class="cls-12" width="1000" height="1000"/>
    <g>
      <path id="Rec" class="cls-3" d="M226.89,475.12h194.77c1.66,0,3,1.34,3,3v193.77c0,1.66-1.34,3-3,3h-193.77c-1.66,0-3-1.34-3-3v-194.77c0-1.1.9-2,2-2Z"/>
      <text class="cls-11" transform="translate(272.93 627.71)"><tspan x="0" y="0">C</tspan></text>
    </g>
    <g>
      <path id="Rec-2" data-name="Rec" class="cls-4" d="M700.27,440.55h194.77c1.66,0,3,1.34,3,3v193.77c0,1.66-1.34,3-3,3h-193.77c-1.66,0-3-1.34-3-3v-194.77c0-1.1.9-2,2-2Z"/>
      <text class="cls-11" transform="translate(746.32 593.15)"><tspan x="0" y="0">Z</tspan></text>
    </g>
    <g>
      <path id="Rec-3" data-name="Rec" class="cls-2" d="M377.12,630.37h194.77c1.66,0,3,1.34,3,3v193.77c0,1.66-1.34,3-3,3h-193.77c-1.66,0-3-1.34-3-3v-194.77c0-1.1.9-2,2-2Z"/>
      <text class="cls-11" transform="translate(423.16 782.97)"><tspan x="0" y="0">S</tspan></text>
    </g>
    <g>
      <path id="Rec-4" data-name="Rec" class="cls-5" d="M490.29,325.12h194.77c1.66,0,3,1.34,3,3v193.77c0,1.66-1.34,3-3,3h-193.77c-1.66,0-3-1.34-3-3v-194.77c0-1.1.9-2,2-2Z" transform="translate(-34.8 52.88) rotate(-5)"/>
      <text class="cls-11" transform="translate(541.12 481.96) rotate(-5)"><tspan x="0" y="0">M</tspan></text>
    </g>
    <g>
      <path id="Rec-5" data-name="Rec" class="cls-6" d="M552.12,578.53h194.77c1.66,0,3,1.34,3,3v193.77c0,1.66-1.34,3-3,3h-193.77c-1.66,0-3-1.34-3-3v-194.77c0-1.1.9-2,2-2Z" transform="translate(87.52 -74.16) rotate(7)"/>
      <text class="cls-11" transform="translate(592.13 724.46) rotate(7)"><tspan x="0" y="0">W</tspan></text>
    </g>
    <g>
      <path id="Rec-6" data-name="Rec" class="cls-9" d="M86.34,622.58h194.77c1.66,0,3,1.34,3,3v193.77c0,1.66-1.34,3-3,3H87.34c-1.66,0-3-1.34-3-3v-194.77c0-1.1.9-2,2-2Z" transform="translate(-405.74 266.57) rotate(-38)"/>
      <text class="cls-11" transform="translate(175.8 795.94) rotate(-38)"><tspan x="0" y="0">R</tspan></text>
    </g>
    <g>
      <path id="Rec-7" data-name="Rec" class="cls-7" d="M362.54,237.67h194.77c1.66,0,3,1.34,3,3v193.77c0,1.66-1.34,3-3,3h-193.77c-1.66,0-3-1.34-3-3v-194.77c0-1.1.9-2,2-2Z" transform="translate(-60.12 103.1) rotate(-12)"/>
      <text class="cls-11" transform="translate(420.67 399.94) rotate(-12)"><tspan x="0" y="0">B</tspan></text>
    </g>
    <g>
      <path id="Rec-8" data-name="Rec" class="cls-8" d="M627.88,100.12h194.77c1.66,0,3,1.34,3,3v193.77c0,1.66-1.34,3-3,3h-193.77c-1.66,0-3-1.34-3-3V102.12c0-1.1.9-2,2-2Z" transform="translate(40.22 -111.07) rotate(9)"/>
      <text class="cls-11" transform="translate(666.31 244) rotate(9)"><tspan x="0" y="0">+</tspan></text>
    </g>
    <g>
      <path id="Rec-9" data-name="Rec" class="cls-1" d="M138.27,200.19h194.77c1.66,0,3,1.34,3,3v193.77c0,1.66-1.34,3-3,3h-193.77c-1.66,0-3-1.34-3-3v-194.77c0-1.1.9-2,2-2Z" transform="translate(49.85 -33.25) rotate(9)"/>
      <text class="cls-11" transform="translate(176.7 344.06) rotate(9)"><tspan x="0" y="0">H</tspan></text>
    </g>
  </g>
</svg>
