<?xml version="1.0" encoding="UTF-8"?>
<svg xmlns="http://www.w3.org/2000/svg" viewBox="0 0 1297.04 3499.92">
  <defs>
    <style>
      .cls-1 {
        fill: #fff;
        font-family: Inter-Regular, Inter;
        font-size: 24px;
      }

      .cls-2 {
        font-family: Inter-Bold, Inter;
        font-size: 120px;
        font-weight: 700;
      }

      .cls-3, .cls-4 {
        stroke: #333;
        stroke-linecap: round;
        stroke-linejoin: round;
      }

      .cls-3, .cls-4, .cls-5 {
        fill: none;
      }

      .cls-3, .cls-5 {
        stroke-width: 6px;
      }

      .cls-6, .cls-7 {
        font-family: Kalam-Regular, Kalam;
        font-size: 160px;
      }

      .cls-6, .cls-8 {
        fill: gray;
      }

      .cls-4 {
        stroke-dasharray: 1 8;
        stroke-width: 3px;
      }

      .cls-5 {
        stroke-dasharray: 16 27;
      }

      .cls-5, .cls-9 {
        stroke: #000;
        stroke-miterlimit: 10;
      }

      .cls-10 {
        fill: #666;
      }

      .cls-10, .cls-8 {
        font-family: Inter-Medium, Inter;
        font-size: 100px;
        font-weight: 500;
      }

      .cls-7 {
        fill: #1a1a1a;
      }

      .cls-11 {
        letter-spacing: -.03em;
      }

      .cls-12 {
        letter-spacing: -.03em;
      }

      .cls-13 {
        letter-spacing: -.04em;
      }

      .cls-14 {
        letter-spacing: -.01em;
      }

      .cls-15 {
        letter-spacing: -.01em;
      }

      .cls-16 {
        fill: #333;
      }

      .cls-17 {
        fill: #eee;
      }
    </style>
  </defs>
  <g id="Secret">
    <g id="Secret-2" data-name="Secret">
      <text class="cls-2" transform="translate(198.62 300.11)"><tspan x="0" y="0">Sec</tspan><tspan class="cls-11" x="220.78" y="0">r</tspan><tspan x="266.76" y="0">et</tspan></text>
      <g id="a.">
        <text class="cls-8" transform="translate(198.51 800.08)"><tspan x="0" y="0">a</tspan><tspan class="cls-15" x="56.92" y="0">.</tspan></text>
        <g id="Doted_line">
          <polyline class="cls-4" points="1098.53 700.08 1098.53 800.08 898.53 800.08"/>
          <polyline class="cls-4" points="698.53 700.08 698.53 800.08 498.53 800.08"/>
          <polyline class="cls-4" points="898.53 700.08 898.53 800.08 698.53 800.08"/>
          <polyline class="cls-4" points="298.53 700.08 298.53 800.08 498.53 800.08 498.53 700.08"/>
        </g>
        <g id="Text-2" data-name="Text">
          <text class="cls-6" transform="translate(348.53 767.62)"><tspan x="0" y="0">T</tspan></text>
          <text class="cls-6" transform="translate(550.68 767.62)"><tspan x="0" y="0">A</tspan></text>
          <text class="cls-6" transform="translate(749.8 767.62)"><tspan x="0" y="0">E</tspan></text>
          <text class="cls-6" transform="translate(949.11 767.62)"><tspan x="0" y="0">W</tspan></text>
        </g>
      </g>
      <g id="_x31_.">
        <text class="cls-8" transform="translate(198.51 600.1)"><tspan class="cls-13" x="0" y="0">1</tspan><tspan class="cls-14" x="43.15" y="0">.</tspan></text>
        <g id="Square">
          <rect class="cls-17" x="298.53" y="400.1" width="200" height="200"/>
          <rect class="cls-17" x="498.53" y="400.1" width="200" height="200"/>
          <rect class="cls-17" x="898.53" y="400.1" width="200" height="200"/>
          <rect class="cls-17" x="698.53" y="400.1" width="200" height="200"/>
        </g>
        <g id="Dot_line">
          <polyline class="cls-4" points="1098.53 500.1 1098.53 600.1 898.53 600.1"/>
          <polyline class="cls-4" points="298.53 500.1 298.53 600.1 498.53 600.1 498.53 500.1"/>
          <polyline class="cls-4" points="898.53 500.1 898.53 600.1 698.53 600.1"/>
          <polyline class="cls-4" points="698.53 500.1 698.53 600.1 498.53 600.1"/>
        </g>
        <g id="Gift">
          <text class="cls-7" transform="translate(348.53 567.64)"><tspan x="0" y="0">A</tspan></text>
          <text class="cls-6" transform="translate(583.59 567.64)"><tspan x="0" y="0">C</tspan></text>
          <text class="cls-6" transform="translate(772.24 567.64)"><tspan x="0" y="0">I</tspan></text>
          <text class="cls-6" transform="translate(968.56 567.64)"><tspan x="0" y="0">D</tspan></text>
          <text/>
        </g>
      </g>
    </g>
  </g>
  <g id="Share_A">
    <text class="cls-2" transform="translate(203.62 1100.06)"><tspan x="0" y="0">Sha</tspan><tspan class="cls-12" x="223.12" y="0">r</tspan><tspan x="269.1" y="0">e A</tspan></text>
    <g id="a.-2" data-name="a.">
      <text class="cls-10" transform="translate(203.51 1600.03)"><tspan x="0" y="0">a</tspan><tspan class="cls-15" x="56.92" y="0">.</tspan></text>
      <g id="Doted_line-2" data-name="Doted_line">
        <polyline class="cls-4" points="1103.54 1500.03 1103.54 1600.03 903.54 1600.03"/>
        <polyline class="cls-4" points="703.54 1500.03 703.54 1600.03 503.54 1600.03"/>
        <polyline class="cls-4" points="903.54 1500.03 903.54 1600.03 703.54 1600.03"/>
        <polyline class="cls-4" points="303.54 1500.03 303.54 1600.03 503.54 1600.03 503.54 1500.03"/>
      </g>
      <g id="Text-3" data-name="Text">
        <text class="cls-6" transform="translate(353.54 1567.57)"><tspan x="0" y="0">E</tspan></text>
        <text class="cls-6" transform="translate(545.69 1577.57)"><tspan x="0" y="0">O</tspan></text>
        <text class="cls-6" transform="translate(754.81 1567.57)"><tspan x="0" y="0">T</tspan></text>
        <text class="cls-6" transform="translate(939.22 1576.88)"><tspan x="0" y="0">M</tspan></text>
      </g>
    </g>
    <g id="_x31_.-2" data-name="_x31_.">
      <text class="cls-8" transform="translate(203.51 1400.05)"><tspan class="cls-13" x="0" y="0">1</tspan><tspan class="cls-14" x="43.15" y="0">.</tspan></text>
      <g id="Square-2" data-name="Square">
        <rect class="cls-17" x="303.54" y="1200.05" width="200" height="200"/>
        <rect class="cls-17" x="503.54" y="1200.05" width="200" height="200"/>
        <rect class="cls-17" x="903.54" y="1200.05" width="200" height="200"/>
        <rect class="cls-17" x="703.54" y="1200.05" width="200" height="200"/>
      </g>
      <g id="Dot_line-2" data-name="Dot_line">
        <polyline class="cls-4" points="1103.54 1300.05 1103.54 1400.05 903.54 1400.05"/>
        <polyline class="cls-4" points="303.54 1300.05 303.54 1400.05 503.54 1400.05 503.54 1300.05"/>
        <polyline class="cls-4" points="903.54 1300.05 903.54 1400.05 703.54 1400.05"/>
        <polyline class="cls-4" points="703.54 1300.05 703.54 1400.05 503.54 1400.05"/>
      </g>
      <g id="Gift-2" data-name="Gift">
        <text class="cls-7" transform="translate(353.54 1367.59)"><tspan x="0" y="0">B</tspan></text>
        <text class="cls-6" transform="translate(558.6 1367.59)"><tspan x="0" y="0">-</tspan></text>
        <text class="cls-6" transform="translate(777.25 1367.59)"><tspan x="0" y="0">Y</tspan></text>
        <text class="cls-6" transform="translate(973.56 1367.59)"><tspan x="0" y="0">F</tspan></text>
        <text/>
      </g>
    </g>
  </g>
  <g id="Share_B">
    <text class="cls-2" transform="translate(198.58 1898.78)"><tspan x="0" y="0">Sha</tspan><tspan class="cls-12" x="223.12" y="0">r</tspan><tspan x="269.1" y="0">e B</tspan></text>
    <g id="a.-3" data-name="a.">
      <text class="cls-10" transform="translate(198.46 2398.76)"><tspan x="0" y="0">a</tspan><tspan class="cls-15" x="56.92" y="0">.</tspan></text>
      <g id="Doted_line-3" data-name="Doted_line">
        <polyline class="cls-4" points="1098.49 2298.76 1098.49 2398.76 898.49 2398.76"/>
        <polyline class="cls-4" points="698.49 2298.76 698.49 2398.76 498.49 2398.76"/>
        <polyline class="cls-4" points="898.49 2298.76 898.49 2398.76 698.49 2398.76"/>
        <polyline class="cls-4" points="298.49 2298.76 298.49 2398.76 498.49 2398.76 498.49 2298.76"/>
      </g>
    </g>
    <g id="_x31_.-3" data-name="_x31_.">
      <text class="cls-10" transform="translate(198.46 2198.78)"><tspan class="cls-13" x="0" y="0">1</tspan><tspan class="cls-14" x="43.15" y="0">.</tspan></text>
      <g id="Square-3" data-name="Square">
        <rect class="cls-17" x="298.49" y="1998.78" width="200" height="200"/>
        <rect class="cls-17" x="498.49" y="1998.78" width="200" height="200"/>
        <rect class="cls-17" x="898.49" y="1998.78" width="200" height="200"/>
        <rect class="cls-17" x="698.49" y="1998.78" width="200" height="200"/>
      </g>
      <g id="Dot_line-3" data-name="Dot_line">
        <polyline class="cls-4" points="1098.49 2098.78 1098.49 2198.78 898.49 2198.78"/>
        <polyline class="cls-4" points="298.49 2098.78 298.49 2198.78 498.49 2198.78 498.49 2098.78"/>
        <polyline class="cls-4" points="898.49 2098.78 898.49 2198.78 698.49 2198.78"/>
        <polyline class="cls-4" points="698.49 2098.78 698.49 2198.78 498.49 2198.78"/>
      </g>
      <g id="Gift-3" data-name="Gift">
        <text class="cls-7" transform="translate(348.49 2166.31)"><tspan x="0" y="0">+</tspan></text>
        <text/>
      </g>
    </g>
  </g>
  <g id="Share_C">
    <text class="cls-2" transform="translate(203.58 2700.82)"><tspan x="0" y="0">Sha</tspan><tspan class="cls-12" x="223.12" y="0">r</tspan><tspan x="269.1" y="0">e C</tspan></text>
    <g id="a.-4" data-name="a.">
      <text class="cls-10" transform="translate(203.47 3200.79)"><tspan x="0" y="0">a</tspan><tspan class="cls-15" x="56.92" y="0">.</tspan></text>
      <g id="Doted_line-4" data-name="Doted_line">
        <polyline class="cls-4" points="1103.5 3100.79 1103.5 3200.79 903.5 3200.79"/>
        <polyline class="cls-4" points="703.5 3100.79 703.5 3200.79 503.5 3200.79"/>
        <polyline class="cls-4" points="903.5 3100.79 903.5 3200.79 703.5 3200.79"/>
        <polyline class="cls-4" points="303.5 3100.79 303.5 3200.79 503.5 3200.79 503.5 3100.79"/>
      </g>
    </g>
    <g id="_x31_.-4" data-name="_x31_.">
      <text class="cls-10" transform="translate(203.47 3000.81)"><tspan class="cls-13" x="0" y="0">1</tspan><tspan class="cls-14" x="43.15" y="0">.</tspan></text>
      <g id="Square-4" data-name="Square">
        <rect class="cls-17" x="303.5" y="2800.81" width="200" height="200"/>
        <rect class="cls-17" x="503.5" y="2800.81" width="200" height="200"/>
        <rect class="cls-17" x="903.5" y="2800.81" width="200" height="200"/>
        <rect class="cls-17" x="703.5" y="2800.81" width="200" height="200"/>
      </g>
      <g id="Dot_line-4" data-name="Dot_line">
        <polyline class="cls-4" points="1103.5 2900.81 1103.5 3000.81 903.5 3000.81"/>
        <polyline class="cls-4" points="303.5 2900.81 303.5 3000.81 503.5 3000.81 503.5 2900.81"/>
        <polyline class="cls-4" points="903.5 2900.81 903.5 3000.81 703.5 3000.81"/>
        <polyline class="cls-4" points="703.5 2900.81 703.5 3000.81 503.5 3000.81"/>
      </g>
      <g id="Gift-4" data-name="Gift">
        <text class="cls-7" transform="translate(353.5 2968.35)"><tspan x="0" y="0">-</tspan></text>
        <text/>
      </g>
    </g>
  </g>
  <g id="Checksum_-_Line">
    <g>
      <path class="cls-5" d="M305.55,512.59c-57.83,52.68-343.02,349.41-.42,808.34"/>
      <path d="M296.15,502.97c5.6-4.95,14.16-4.41,19.1,1.19s4.41,14.16-1.19,19.1c-5.6,4.95-14.16,4.41-19.1-1.19-4.95-5.6-4.41-14.16,1.19-19.1Z"/>
      <path d="M293.94,1328.41c4.46,6,12.94,7.24,18.94,2.78,6-4.46,7.24-12.94,2.78-18.94s-12.94-7.24-18.94-2.78c-6,4.46-7.24,12.94-2.78,18.94Z"/>
    </g>
    <path d="M439.97,2033.76c-15.18,4.87-29.74,11.66-43.26,20.1-13.78,8.6-26.54,18.89-37.93,30.47-11.54,11.75-21.94,24.92-30.31,39.12-4.63,7.85-8.52,16.49-9.17,25.7-.61,8.67,2.38,17.05,8.26,23.42,12.67,13.71,32.62,13.34,49.58,10.17,17-3.18,33.35-10.1,47.6-19.87,13.88-9.52,26.84-21.79,33.43-37.57,3.1-7.42,4.52-15.64,3.58-23.66-.89-7.56-3.54-14.78-7.67-21.18-8.15-12.6-21.31-22.1-35.81-25.93-19.12-5.05-39.27-1.57-58.05,3.27-4.67,1.2-9.31,2.51-13.95,3.82-3.71,1.05-2.13,6.84,1.6,5.79,17.98-5.08,36.5-10.32,55.38-9.18,7.76.47,15.73,2.17,22.57,5.42,6.33,3.01,11.91,6.97,16.76,11.96,9.65,9.92,15.33,23.58,12.94,37.5-2.65,15.45-13.19,28.08-24.91,37.86-12.6,10.51-27.4,18.46-43.13,23.12-7.94,2.35-16.17,3.97-24.44,4.44-8.29.47-16.95-.41-24.12-4.53-6.01-3.45-10.93-8.97-12.8-15.72-2.2-7.92-.11-16.33,3.22-23.63s8.08-14.52,12.86-21.25c4.46-6.29,9.3-12.3,14.45-18.04,10.29-11.46,21.85-21.8,34.48-30.63,12.41-8.67,25.85-16,39.94-21.48,3.46-1.34,6.96-2.58,10.49-3.71,1.54-.49,2.54-2.08,2.1-3.69-.42-1.52-2.14-2.59-3.69-2.1h0Z"/>
    <g>
      <path class="cls-3" d="M482.67,2169.96s240.74,226.86,3.07,674.26"/>
      <polygon class="cls-16" points="473.22 2815.18 479.02 2813.6 486.77 2842.15 514.68 2832.34 516.66 2838.01 482.67 2849.95 473.22 2815.18"/>
    </g>
    <g>
      <path class="cls-3" d="M482.67,1316s461.77,68.08,62.99,787.46"/>
      <polygon class="cls-16" points="533.64 2074.21 539.46 2072.73 546.72 2101.41 574.8 2092.07 576.69 2097.77 542.5 2109.14 533.64 2074.21"/>
    </g>
  </g>
  <g id="Share_-_Number">
    <g id="_x30_2">
      <circle class="cls-9" cx="337.06" cy="1231.58" r="14.8"/>
      <text class="cls-1" transform="translate(330.13 1239.24)"><tspan x="0" y="0">2</tspan></text>
    </g>
    <g id="_x30_4">
      <circle class="cls-9" cx="505.84" cy="2038.15" r="14.8"/>
      <text class="cls-1" transform="translate(497.91 2046.81)"><tspan x="0" y="0">4</tspan></text>
    </g>
    <g id="_x30_3">
      <circle class="cls-9" cx="468.49" cy="2039.39" r="14.8"/>
      <text class="cls-1" transform="translate(460.57 2048.04)"><tspan x="0" y="0">3</tspan></text>
    </g>
    <g id="_x30_5">
      <circle class="cls-9" cx="473.84" cy="2883.55" r="14.8"/>
      <text class="cls-1" transform="translate(465.92 2892.2)"><tspan x="0" y="0">5</tspan></text>
    </g>
    <g id="_x30_1">
      <circle class="cls-9" cx="469.57" cy="437.46" r="14.8"/>
      <text class="cls-1" transform="translate(463.65 447.11)"><tspan x="0" y="0">1</tspan></text>
    </g>
  </g>
</svg>