<?xml version="1.0" encoding="UTF-8"?>
<svg xmlns="http://www.w3.org/2000/svg" viewBox="0 0 1300 2600">
  <defs>
    <style>
      .cls-1 {
        fill: #fff;
        font-family: Inter-Regular, Inter;
        font-size: 24px;
      }

      .cls-2 {
        fill: #e6e6e6;
      }

      .cls-3 {
        font-family: Inter-Bold, Inter;
        font-size: 120px;
        font-weight: 700;
      }

      .cls-3, .cls-4 {
        fill: #1a1a1a;
      }

      .cls-5 {
        fill: gray;
      }

      .cls-5, .cls-4 {
        font-family: Kalam-Regular, Kalam;
        font-size: 160px;
      }

      .cls-6, .cls-7 {
        font-family: Inter-Medium, Inter;
        font-size: 100px;
        font-weight: 500;
      }

      .cls-8 {
        stroke: #333;
        stroke-dasharray: 1 8;
        stroke-linecap: round;
        stroke-linejoin: round;
        stroke-width: 3px;
      }

      .cls-8, .cls-9, .cls-10 {
        fill: none;
      }

      .cls-7 {
        fill: #666;
      }

      .cls-9 {
        stroke-dasharray: 16.37 27.63;
      }

      .cls-9, .cls-10 {
        stroke-width: 6px;
      }

      .cls-9, .cls-10, .cls-11 {
        stroke: #000;
        stroke-miterlimit: 10;
      }

      .cls-12 {
        letter-spacing: -.03em;
      }

      .cls-13 {
        letter-spacing: -.03em;
      }

      .cls-14 {
        letter-spacing: -.04em;
      }

      .cls-15 {
        letter-spacing: -.01em;
      }

      .cls-16 {
        letter-spacing: -.01em;
      }

      .cls-17 {
        fill: #eee;
      }
    </style>
  </defs>
  <g id="Share_A">
    <text class="cls-3" transform="translate(204.66 302.26)"><tspan x="0" y="0">Sha</tspan><tspan class="cls-13" x="223.12" y="0">r</tspan><tspan x="269.1" y="0">e A</tspan></text>
    <g id="a.">
      <text class="cls-7" transform="translate(198.29 803.83)"><tspan x="0" y="0">a</tspan><tspan class="cls-16" x="56.92" y="0">.</tspan></text>
      <g id="Doted_line">
        <polyline class="cls-8" points="1098.32 703.83 1098.32 803.83 898.32 803.83"/>
        <polyline class="cls-8" points="698.32 703.83 698.32 803.83 498.32 803.83"/>
        <polyline class="cls-8" points="898.32 703.83 898.32 803.83 698.32 803.83"/>
        <polyline class="cls-8" points="298.32 703.83 298.32 803.83 498.32 803.83 498.32 703.83"/>
      </g>
      <g id="Text-2" data-name="Text">
        <text class="cls-5" transform="translate(348.32 771.37)"><tspan x="0" y="0">O</tspan></text>
        <text class="cls-5" transform="translate(550.46 771.37)"><tspan x="0" y="0">T</tspan></text>
        <text class="cls-5" transform="translate(749.58 771.37)"><tspan x="0" y="0">U</tspan></text>
        <text class="cls-5" transform="translate(948.89 771.37)"><tspan x="0" y="0">K</tspan></text>
      </g>
    </g>
    <g id="_x31_.">
      <text class="cls-7" transform="translate(202.29 601.85)"><tspan class="cls-14" x="0" y="0">1</tspan><tspan class="cls-15" x="43.15" y="0">.</tspan></text>
      <g id="Square">
        <rect class="cls-17" x="302.32" y="401.85" width="200" height="200"/>
        <rect class="cls-17" x="502.32" y="401.85" width="200" height="200"/>
        <rect class="cls-17" x="902.32" y="401.85" width="200" height="200"/>
        <rect class="cls-17" x="702.32" y="401.85" width="200" height="200"/>
      </g>
      <g id="Dot_line">
        <polyline class="cls-8" points="1102.32 501.85 1102.32 601.85 902.32 601.85"/>
        <polyline class="cls-8" points="302.32 501.85 302.32 601.85 502.32 601.85 502.32 501.85"/>
        <polyline class="cls-8" points="902.32 501.85 902.32 601.85 702.32 601.85"/>
        <polyline class="cls-8" points="702.32 501.85 702.32 601.85 502.32 601.85"/>
      </g>
      <g id="Gift">
        <text class="cls-4" transform="translate(352.32 569.39)"><tspan x="0" y="0">I</tspan></text>
        <text class="cls-5" transform="translate(562.38 569.39)"><tspan x="0" y="0">A</tspan></text>
        <text class="cls-5" transform="translate(776.02 569.39)"><tspan x="0" y="0">W</tspan></text>
        <text class="cls-5" transform="translate(972.34 569.39)"><tspan x="0" y="0">F</tspan></text>
        <text/>
      </g>
    </g>
  </g>
  <g id="Secret">
    <text class="cls-3" transform="translate(201.66 1899.36)"><tspan x="0" y="0">Sec</tspan><tspan class="cls-12" x="220.78" y="0">r</tspan><tspan x="266.76" y="0">et</tspan></text>
    <g id="_x31_.-2" data-name="_x31_.">
      <text class="cls-6" transform="translate(199.29 2200.95)"><tspan class="cls-14" x="0" y="0">1</tspan><tspan class="cls-15" x="43.15" y="0">.</tspan></text>
      <g id="Square-2" data-name="Square">
        <rect class="cls-2" x="299.32" y="2000.95" width="200" height="200"/>
        <rect class="cls-2" x="499.32" y="2000.95" width="200" height="200"/>
        <rect class="cls-2" x="899.32" y="2000.95" width="200" height="200"/>
        <rect class="cls-2" x="699.32" y="2000.95" width="200" height="200"/>
      </g>
      <g id="Dot_line-2" data-name="Dot_line">
        <polyline class="cls-8" points="1099.32 2100.95 1099.32 2200.95 899.32 2200.95"/>
        <polyline class="cls-8" points="299.32 2100.95 299.32 2200.95 499.32 2200.95 499.32 2100.95"/>
        <polyline class="cls-8" points="899.32 2100.95 899.32 2200.95 699.32 2200.95"/>
        <polyline class="cls-8" points="699.32 2100.95 699.32 2200.95 499.32 2200.95"/>
      </g>
      <g id="Gift-2" data-name="Gift">
        <text class="cls-4" transform="translate(349.32 2168.49)"><tspan x="0" y="0">B</tspan></text>
        <text/>
      </g>
    </g>
    <g id="a.-2" data-name="a.">
      <text class="cls-7" transform="translate(199.99 2403.73)"><tspan x="0" y="0">a</tspan><tspan class="cls-16" x="56.92" y="0">.</tspan></text>
      <g id="Doted_line-2" data-name="Doted_line">
        <polyline class="cls-8" points="1100.01 2303.73 1100.01 2403.73 900.01 2403.73"/>
        <polyline class="cls-8" points="700.01 2303.73 700.01 2403.73 500.01 2403.73"/>
        <polyline class="cls-8" points="900.01 2303.73 900.01 2403.73 700.01 2403.73"/>
        <polyline class="cls-8" points="300.01 2303.73 300.01 2403.73 500.01 2403.73 500.01 2303.73"/>
      </g>
    </g>
  </g>
  <g id="Share_C">
    <text class="cls-3" transform="translate(201.66 1096.56)"><tspan x="0" y="0">Sha</tspan><tspan class="cls-13" x="223.12" y="0">r</tspan><tspan x="269.1" y="0">e C</tspan></text>
    <g id="a.-3" data-name="a.">
      <text class="cls-7" transform="translate(195.29 1598.13)"><tspan x="0" y="0">a</tspan><tspan class="cls-16" x="56.92" y="0">.</tspan></text>
      <g id="Doted_line-3" data-name="Doted_line">
        <polyline class="cls-8" points="1095.32 1498.13 1095.32 1598.13 895.32 1598.13"/>
        <polyline class="cls-8" points="695.32 1498.13 695.32 1598.13 495.32 1598.13"/>
        <polyline class="cls-8" points="895.32 1498.13 895.32 1598.13 695.32 1598.13"/>
        <polyline class="cls-8" points="295.32 1498.13 295.32 1598.13 495.32 1598.13 495.32 1498.13"/>
      </g>
      <g id="Text-3" data-name="Text">
        <text class="cls-5" transform="translate(345.32 1565.67)"><tspan x="0" y="0">N</tspan></text>
        <text class="cls-5" transform="translate(547.46 1565.67)"><tspan x="0" y="0">K</tspan></text>
        <text class="cls-5" transform="translate(746.58 1565.67)"><tspan x="0" y="0">Y</tspan></text>
        <text class="cls-5" transform="translate(945.89 1565.67)"><tspan x="0" y="0">X</tspan></text>
      </g>
    </g>
    <g id="_x31_.-3" data-name="_x31_.">
      <text class="cls-7" transform="translate(199.29 1401.15)"><tspan class="cls-14" x="0" y="0">1</tspan><tspan class="cls-15" x="43.15" y="0">.</tspan></text>
      <g id="Square-3" data-name="Square">
        <rect class="cls-17" x="299.32" y="1201.15" width="200" height="200"/>
        <rect class="cls-17" x="499.32" y="1201.15" width="200" height="200"/>
        <rect class="cls-17" x="899.32" y="1201.15" width="200" height="200"/>
        <rect class="cls-17" x="699.32" y="1201.15" width="200" height="200"/>
      </g>
      <g id="Dot_line-3" data-name="Dot_line">
        <polyline class="cls-8" points="1099.32 1301.15 1099.32 1401.15 899.32 1401.15"/>
        <polyline class="cls-8" points="299.32 1301.15 299.32 1401.15 499.32 1401.15 499.32 1301.15"/>
        <polyline class="cls-8" points="899.32 1301.15 899.32 1401.15 699.32 1401.15"/>
        <polyline class="cls-8" points="699.32 1301.15 699.32 1401.15 499.32 1401.15"/>
      </g>
      <g id="Gift-3" data-name="Gift">
        <text class="cls-4" transform="translate(349.32 1368.69)"><tspan x="0" y="0">C</tspan></text>
        <text class="cls-5" transform="translate(559.38 1368.69)"><tspan x="0" y="0">O</tspan></text>
        <text class="cls-5" transform="translate(773.02 1368.69)"><tspan x="0" y="0">L</tspan></text>
        <text class="cls-5" transform="translate(969.34 1368.69)"><tspan x="0" y="0">H</tspan></text>
        <text/>
      </g>
    </g>
  </g>
  <g id="Checksum_-_Line">
    <path d="M437.26,2036.4c-15.86-8.58-34.13-12.58-52.12-11.68s-35.54,6.45-49.88,17.15c-14,10.44-23.88,25.16-28.51,42-4.44,16.15-4.17,33.95,1.8,49.68,2.99,7.9,7.31,15.2,12.99,21.47,6.01,6.65,13.47,12.05,21.54,15.94,16.51,7.97,35.41,10.11,53.51,8.1,18.82-2.08,37.49-8.35,53.44-18.63s30.02-26.18,34.88-45.53c2.39-9.51,2.73-19.6.48-29.17-2.15-9.14-6.86-17.49-13.4-24.2-12.68-13-30.75-19.12-47.98-23.34-4.29-1.05-8.6-1.99-12.92-2.9-1.58-.33-3.24.47-3.69,2.1-.41,1.49.5,3.36,2.1,3.69,16.75,3.51,34.04,7.42,48.51,16.78,6.8,4.4,12.79,10.2,16.86,17.29,4.47,7.79,6.29,16.7,6.03,25.59-.26,8.98-2.67,17.97-6.83,25.99-4.23,8.12-10.22,15.18-17.14,21.14-13.67,11.79-31.07,19.39-48.6,23.23-16.75,3.67-34.65,3.84-51.18-1.09-15.69-4.68-29.87-14.49-38.22-28.59s-10.52-29.44-8.59-45.1,8.69-30.68,19.58-41.89c11.68-12.03,27.21-19.42,43.67-22.4s33.86-1.36,49.69,4.54c3.74,1.4,7.34,3.05,10.95,5.01,3.4,1.84,6.43-3.34,3.03-5.18h0Z"/>
  </g>
  <g id="Line">
    <g>
      <path class="cls-10" d="M312.03,524.1c-2.3,1.33-4.57,2.72-6.83,4.16"/>
      <path class="cls-9" d="M282.94,544.6c-151.09,126.56-197.65,498.38,13.94,706.37"/>
      <path class="cls-10" d="M306.88,1260.5c1.96,1.81,3.93,3.6,5.93,5.38"/>
      <path d="M308.42,518.43c3.25-1.85,7.38-.71,9.23,2.53s.71,7.38-2.53,9.23c-3.25,1.85-7.38.71-9.23-2.53-1.85-3.25-.71-7.38,2.53-9.23Z"/>
      <path d="M308.09,1270.64c2.78,2.49,7.06,2.26,9.56-.52,2.49-2.78,2.26-7.06-.52-9.56-2.78-2.49-7.06-2.26-9.56.52-2.49,2.78-2.26,7.06.52,9.56Z"/>
    </g>
  </g>
  <g id="Layer_14">
    <g id="_x30_2">
      <circle class="cls-11" cx="345.32" cy="1253.86" r="14.8"/>
      <text class="cls-1" transform="translate(338.39 1261.51)"><tspan x="0" y="0">2</tspan></text>
    </g>
    <g id="_x30_3">
      <circle class="cls-11" cx="345.32" cy="2065" r="14.8"/>
      <text class="cls-1" transform="translate(337.39 2073.66)"><tspan x="0" y="0">3</tspan></text>
    </g>
    <g id="_x30_1">
      <circle class="cls-11" cx="345.32" cy="452.79" r="14.8"/>
      <text class="cls-1" transform="translate(339.39 462.44)"><tspan x="0" y="0">1</tspan></text>
    </g>
  </g>
</svg>